<mxfile host="app.diagrams.net" modified="2022-11-02T18:22:49.233Z" agent="5.0 (Windows NT 10.0; Win64; x64) AppleWebKit/537.36 (KHTML, like Gecko) Chrome/107.0.0.0 Safari/537.36" etag="GJBZzd5FeOunGvDiRcQd" version="20.5.1" type="github">
  <diagram name="Page-1" id="7e0a89b8-554c-2b80-1dc8-d5c74ca68de4">
    <mxGraphModel dx="593" dy="313" grid="1" gridSize="10" guides="1" tooltips="1" connect="1" arrows="1" fold="1" page="1" pageScale="1" pageWidth="1100" pageHeight="850" background="none" math="0" shadow="0">
      <root>
        <mxCell id="0" />
        <mxCell id="1" parent="0" />
        <mxCell id="VY9RNtQ21Xbzkvr4CC-8-1" value="&lt;b&gt;C(s)&lt;/b&gt;" style="html=1;" vertex="1" parent="1">
          <mxGeometry x="320" y="220" width="80" height="40" as="geometry" />
        </mxCell>
        <mxCell id="VY9RNtQ21Xbzkvr4CC-8-2" value="" style="endArrow=classic;html=1;rounded=0;exitX=1;exitY=0.5;exitDx=0;exitDy=0;entryX=0;entryY=0.5;entryDx=0;entryDy=0;" edge="1" parent="1" source="VY9RNtQ21Xbzkvr4CC-8-1" target="VY9RNtQ21Xbzkvr4CC-8-3">
          <mxGeometry width="50" height="50" relative="1" as="geometry">
            <mxPoint x="510" y="310" as="sourcePoint" />
            <mxPoint x="520" y="200" as="targetPoint" />
          </mxGeometry>
        </mxCell>
        <mxCell id="VY9RNtQ21Xbzkvr4CC-8-3" value="&lt;b&gt;G(s)&lt;/b&gt;" style="html=1;" vertex="1" parent="1">
          <mxGeometry x="480" y="220" width="80" height="40" as="geometry" />
        </mxCell>
        <mxCell id="VY9RNtQ21Xbzkvr4CC-8-8" value="" style="endArrow=classic;html=1;rounded=0;exitX=1;exitY=0.5;exitDx=0;exitDy=0;entryX=0;entryY=0.5;entryDx=0;entryDy=0;" edge="1" parent="1" source="VY9RNtQ21Xbzkvr4CC-8-15" target="VY9RNtQ21Xbzkvr4CC-8-1">
          <mxGeometry width="50" height="50" relative="1" as="geometry">
            <mxPoint x="251.99999999999648" y="236" as="sourcePoint" />
            <mxPoint x="670" y="260" as="targetPoint" />
          </mxGeometry>
        </mxCell>
        <mxCell id="VY9RNtQ21Xbzkvr4CC-8-9" value="&lt;b&gt;H(s)&lt;/b&gt;" style="html=1;" vertex="1" parent="1">
          <mxGeometry x="400" y="300" width="80" height="40" as="geometry" />
        </mxCell>
        <mxCell id="VY9RNtQ21Xbzkvr4CC-8-10" value="" style="endArrow=classic;html=1;rounded=0;exitX=0;exitY=0.5;exitDx=0;exitDy=0;entryX=0.5;entryY=1;entryDx=0;entryDy=0;" edge="1" parent="1" source="VY9RNtQ21Xbzkvr4CC-8-9" target="VY9RNtQ21Xbzkvr4CC-8-15">
          <mxGeometry width="50" height="50" relative="1" as="geometry">
            <mxPoint x="390" y="310" as="sourcePoint" />
            <mxPoint x="236.0000000000001" y="252.0000000000001" as="targetPoint" />
            <Array as="points">
              <mxPoint x="240" y="320" />
            </Array>
          </mxGeometry>
        </mxCell>
        <mxCell id="VY9RNtQ21Xbzkvr4CC-8-11" value="" style="endArrow=classic;html=1;rounded=0;exitX=1;exitY=0.5;exitDx=0;exitDy=0;" edge="1" parent="1" source="VY9RNtQ21Xbzkvr4CC-8-3">
          <mxGeometry width="50" height="50" relative="1" as="geometry">
            <mxPoint x="390" y="310" as="sourcePoint" />
            <mxPoint x="680" y="240" as="targetPoint" />
          </mxGeometry>
        </mxCell>
        <mxCell id="VY9RNtQ21Xbzkvr4CC-8-12" value="" style="endArrow=classic;html=1;rounded=0;entryX=1;entryY=0.5;entryDx=0;entryDy=0;" edge="1" parent="1" target="VY9RNtQ21Xbzkvr4CC-8-9">
          <mxGeometry width="50" height="50" relative="1" as="geometry">
            <mxPoint x="640" y="240" as="sourcePoint" />
            <mxPoint x="560" y="360" as="targetPoint" />
            <Array as="points">
              <mxPoint x="640" y="320" />
            </Array>
          </mxGeometry>
        </mxCell>
        <mxCell id="VY9RNtQ21Xbzkvr4CC-8-13" value="" style="endArrow=classic;html=1;rounded=0;entryX=0;entryY=0.5;entryDx=0;entryDy=0;" edge="1" parent="1" target="VY9RNtQ21Xbzkvr4CC-8-15">
          <mxGeometry width="50" height="50" relative="1" as="geometry">
            <mxPoint x="160" y="240" as="sourcePoint" />
            <mxPoint x="220.00000000000352" y="236" as="targetPoint" />
          </mxGeometry>
        </mxCell>
        <mxCell id="VY9RNtQ21Xbzkvr4CC-8-19" value="" style="group" vertex="1" connectable="0" parent="1">
          <mxGeometry x="230" y="230" width="20" height="20" as="geometry" />
        </mxCell>
        <mxCell id="VY9RNtQ21Xbzkvr4CC-8-15" value="" style="ellipse;whiteSpace=wrap;html=1;aspect=fixed;strokeColor=default;fontSize=30;" vertex="1" parent="VY9RNtQ21Xbzkvr4CC-8-19">
          <mxGeometry width="20" height="20" as="geometry" />
        </mxCell>
        <mxCell id="VY9RNtQ21Xbzkvr4CC-8-16" value="" style="endArrow=none;html=1;rounded=0;fontSize=30;entryX=0;entryY=0;entryDx=0;entryDy=0;exitX=1;exitY=1;exitDx=0;exitDy=0;" edge="1" parent="VY9RNtQ21Xbzkvr4CC-8-19" source="VY9RNtQ21Xbzkvr4CC-8-15" target="VY9RNtQ21Xbzkvr4CC-8-15">
          <mxGeometry width="50" height="50" relative="1" as="geometry">
            <mxPoint x="58.75" y="105" as="sourcePoint" />
            <mxPoint x="90" y="73.75" as="targetPoint" />
          </mxGeometry>
        </mxCell>
        <mxCell id="VY9RNtQ21Xbzkvr4CC-8-17" value="" style="endArrow=none;html=1;rounded=0;fontSize=30;entryX=1;entryY=0;entryDx=0;entryDy=0;exitX=0;exitY=1;exitDx=0;exitDy=0;" edge="1" parent="VY9RNtQ21Xbzkvr4CC-8-19" source="VY9RNtQ21Xbzkvr4CC-8-15" target="VY9RNtQ21Xbzkvr4CC-8-15">
          <mxGeometry width="50" height="50" relative="1" as="geometry">
            <mxPoint x="58.75" y="105" as="sourcePoint" />
            <mxPoint x="90" y="73.75" as="targetPoint" />
          </mxGeometry>
        </mxCell>
        <mxCell id="VY9RNtQ21Xbzkvr4CC-8-24" value="&lt;b&gt;R(s)&lt;/b&gt;" style="html=1;fillColor=none;strokeColor=none;" vertex="1" parent="1">
          <mxGeometry x="160" y="220" width="80" height="20" as="geometry" />
        </mxCell>
        <mxCell id="VY9RNtQ21Xbzkvr4CC-8-25" value="&lt;b&gt;E(s)&lt;/b&gt;" style="html=1;fillColor=none;strokeColor=none;" vertex="1" parent="1">
          <mxGeometry x="240" y="220" width="80" height="20" as="geometry" />
        </mxCell>
        <mxCell id="VY9RNtQ21Xbzkvr4CC-8-26" value="&lt;b&gt;X(s)&lt;/b&gt;" style="html=1;fillColor=none;strokeColor=none;" vertex="1" parent="1">
          <mxGeometry x="400" y="220" width="80" height="20" as="geometry" />
        </mxCell>
        <mxCell id="VY9RNtQ21Xbzkvr4CC-8-27" value="&lt;b&gt;Y(s)&lt;/b&gt;" style="html=1;fillColor=none;strokeColor=none;" vertex="1" parent="1">
          <mxGeometry x="560" y="220" width="80" height="20" as="geometry" />
        </mxCell>
        <mxCell id="VY9RNtQ21Xbzkvr4CC-8-28" value="&lt;b&gt;Z(s)&lt;/b&gt;" style="html=1;fillColor=none;strokeColor=none;" vertex="1" parent="1">
          <mxGeometry x="240" y="240" width="40" height="80" as="geometry" />
        </mxCell>
      </root>
    </mxGraphModel>
  </diagram>
</mxfile>
